<mxfile host="65bd71144e">
    <diagram id="wc02m7L-Qtvv-H7UF3Zc" name="Index.html">
        <mxGraphModel dx="639" dy="382" grid="0" gridSize="10" guides="1" tooltips="1" connect="1" arrows="1" fold="1" page="1" pageScale="1" pageWidth="1200" pageHeight="1920" background="#EEEEEE" math="0" shadow="1">
            <root>
                <mxCell id="0"/>
                <mxCell id="1" parent="0"/>
                <mxCell id="57" value="" style="edgeStyle=orthogonalEdgeStyle;curved=0;rounded=1;sketch=1;orthogonalLoop=1;jettySize=auto;html=1;fontFamily=Comic Sans MS;fontSize=14;fontColor=#1A1A1A;strokeColor=#182E3E;" edge="1" parent="1" source="2" target="35">
                    <mxGeometry relative="1" as="geometry"/>
                </mxCell>
                <mxCell id="2" value="DOM" style="swimlane;startSize=41;horizontal=1;containerType=tree;rounded=1;sketch=1;fillColor=#F5AB50;strokeColor=#909090;fontColor=#1A1A1A;fontFamily=Comic Sans MS;fontSize=24;spacing=0;" parent="1" vertex="1">
                    <mxGeometry x="36" y="46" width="910" height="321" as="geometry"/>
                </mxCell>
                <mxCell id="3" value="" style="edgeStyle=elbowEdgeStyle;elbow=vertical;startArrow=none;endArrow=none;sketch=1;labelBackgroundColor=#EEEEEE;strokeColor=#182E3E;fontColor=#1A1A1A;fontFamily=Comic Sans MS;fontSize=14;fontStyle=1" parent="2" source="4" target="5" edge="1">
                    <mxGeometry relative="1" as="geometry"/>
                </mxCell>
                <mxCell id="4" value="body" style="whiteSpace=wrap;html=1;treeFolding=1;treeMoving=1;newEdgeStyle={&quot;edgeStyle&quot;:&quot;elbowEdgeStyle&quot;,&quot;startArrow&quot;:&quot;none&quot;,&quot;endArrow&quot;:&quot;none&quot;};rounded=1;sketch=1;fillColor=#F5AB50;strokeColor=#909090;fontColor=#1A1A1A;fontFamily=Comic Sans MS;fontSize=14;fontStyle=1" parent="2" vertex="1">
                    <mxGeometry x="140" y="60" width="120" height="40" as="geometry"/>
                </mxCell>
                <mxCell id="5" value="Header" style="whiteSpace=wrap;html=1;treeFolding=1;treeMoving=1;newEdgeStyle={&quot;edgeStyle&quot;:&quot;elbowEdgeStyle&quot;,&quot;startArrow&quot;:&quot;none&quot;,&quot;endArrow&quot;:&quot;none&quot;};rounded=1;sketch=1;fillColor=#F5AB50;strokeColor=#909090;fontColor=#1A1A1A;fontFamily=Comic Sans MS;fontSize=14;fontStyle=1" parent="2" vertex="1">
                    <mxGeometry x="140" y="140" width="120" height="40" as="geometry"/>
                </mxCell>
                <mxCell id="7" value="" style="edgeStyle=elbowEdgeStyle;elbow=vertical;startArrow=none;endArrow=none;sketch=1;labelBackgroundColor=#EEEEEE;strokeColor=#182E3E;fontColor=#1A1A1A;fontFamily=Comic Sans MS;fontSize=14;fontStyle=1" parent="2" source="4" target="8" edge="1">
                    <mxGeometry relative="1" as="geometry">
                        <mxPoint x="274" y="148" as="sourcePoint"/>
                    </mxGeometry>
                </mxCell>
                <mxCell id="8" value="Section-1" style="whiteSpace=wrap;html=1;treeFolding=1;treeMoving=1;newEdgeStyle={&quot;edgeStyle&quot;:&quot;elbowEdgeStyle&quot;,&quot;startArrow&quot;:&quot;none&quot;,&quot;endArrow&quot;:&quot;none&quot;};rounded=1;sketch=1;fillColor=#F5AB50;strokeColor=#909090;fontColor=#1A1A1A;fontFamily=Comic Sans MS;fontSize=14;fontStyle=1" parent="2" vertex="1">
                    <mxGeometry x="270" y="140" width="120" height="40" as="geometry"/>
                </mxCell>
                <mxCell id="10" value="" style="edgeStyle=elbowEdgeStyle;elbow=vertical;startArrow=none;endArrow=none;sketch=1;labelBackgroundColor=#EEEEEE;strokeColor=#182E3E;fontColor=#1A1A1A;fontFamily=Comic Sans MS;fontSize=14;fontStyle=1" parent="2" source="4" target="11" edge="1">
                    <mxGeometry relative="1" as="geometry">
                        <mxPoint x="236" y="146" as="sourcePoint"/>
                    </mxGeometry>
                </mxCell>
                <mxCell id="11" value="Section-2" style="whiteSpace=wrap;html=1;treeFolding=1;treeMoving=1;newEdgeStyle={&quot;edgeStyle&quot;:&quot;elbowEdgeStyle&quot;,&quot;startArrow&quot;:&quot;none&quot;,&quot;endArrow&quot;:&quot;none&quot;};rounded=1;sketch=1;fillColor=#F5AB50;strokeColor=#909090;fontColor=#1A1A1A;fontFamily=Comic Sans MS;fontSize=14;fontStyle=1" parent="2" vertex="1">
                    <mxGeometry x="400" y="140" width="120" height="40" as="geometry"/>
                </mxCell>
                <mxCell id="12" value="" style="edgeStyle=elbowEdgeStyle;elbow=vertical;startArrow=none;endArrow=none;sketch=1;labelBackgroundColor=#EEEEEE;strokeColor=#182E3E;fontColor=#1A1A1A;fontFamily=Comic Sans MS;fontSize=14;fontStyle=1" parent="2" source="4" target="13" edge="1">
                    <mxGeometry relative="1" as="geometry">
                        <mxPoint x="236" y="146" as="sourcePoint"/>
                    </mxGeometry>
                </mxCell>
                <mxCell id="13" value="Section-3" style="whiteSpace=wrap;html=1;treeFolding=1;treeMoving=1;newEdgeStyle={&quot;edgeStyle&quot;:&quot;elbowEdgeStyle&quot;,&quot;startArrow&quot;:&quot;none&quot;,&quot;endArrow&quot;:&quot;none&quot;};rounded=1;sketch=1;fillColor=#F5AB50;strokeColor=#909090;fontColor=#1A1A1A;fontFamily=Comic Sans MS;fontSize=14;fontStyle=1" parent="2" vertex="1">
                    <mxGeometry x="530" y="140" width="120" height="40" as="geometry"/>
                </mxCell>
                <mxCell id="15" value="" style="edgeStyle=elbowEdgeStyle;elbow=vertical;startArrow=none;endArrow=none;sketch=1;labelBackgroundColor=#EEEEEE;strokeColor=#182E3E;fontColor=#1A1A1A;fontFamily=Comic Sans MS;fontSize=14;fontStyle=1" parent="2" source="4" target="16" edge="1">
                    <mxGeometry relative="1" as="geometry">
                        <mxPoint x="236" y="146" as="sourcePoint"/>
                    </mxGeometry>
                </mxCell>
                <mxCell id="16" value="Footer" style="whiteSpace=wrap;html=1;treeFolding=1;treeMoving=1;newEdgeStyle={&quot;edgeStyle&quot;:&quot;elbowEdgeStyle&quot;,&quot;startArrow&quot;:&quot;none&quot;,&quot;endArrow&quot;:&quot;none&quot;};rounded=1;sketch=1;fillColor=#F5AB50;strokeColor=#909090;fontColor=#1A1A1A;fontFamily=Comic Sans MS;fontSize=14;fontStyle=1" parent="2" vertex="1">
                    <mxGeometry x="660" y="140" width="120" height="40" as="geometry"/>
                </mxCell>
                <mxCell id="21" value="" style="edgeStyle=elbowEdgeStyle;elbow=vertical;startArrow=none;endArrow=none;sketch=1;labelBackgroundColor=#EEEEEE;strokeColor=#182E3E;fontColor=#1A1A1A;fontFamily=Comic Sans MS;fontSize=14;fontStyle=1" edge="1" target="22" source="5" parent="2">
                    <mxGeometry relative="1" as="geometry">
                        <mxPoint x="236" y="146" as="sourcePoint"/>
                    </mxGeometry>
                </mxCell>
                <mxCell id="22" value="Container" style="whiteSpace=wrap;html=1;treeFolding=1;treeMoving=1;newEdgeStyle={&quot;edgeStyle&quot;:&quot;elbowEdgeStyle&quot;,&quot;startArrow&quot;:&quot;none&quot;,&quot;endArrow&quot;:&quot;none&quot;};rounded=1;sketch=1;fillColor=#F5AB50;strokeColor=#909090;fontColor=#1A1A1A;arcSize=23;fontFamily=Comic Sans MS;fontSize=14;fontStyle=1" vertex="1" parent="2">
                    <mxGeometry x="140" y="220" width="120" height="40" as="geometry"/>
                </mxCell>
                <mxCell id="27" value="" style="edgeStyle=elbowEdgeStyle;elbow=vertical;startArrow=none;endArrow=none;sketch=1;labelBackgroundColor=#EEEEEE;strokeColor=#182E3E;fontColor=#1A1A1A;fontFamily=Comic Sans MS;fontSize=14;fontStyle=1" edge="1" target="28" source="8" parent="2">
                    <mxGeometry relative="1" as="geometry">
                        <mxPoint x="236" y="146" as="sourcePoint"/>
                    </mxGeometry>
                </mxCell>
                <mxCell id="28" value="Container" style="whiteSpace=wrap;html=1;treeFolding=1;treeMoving=1;newEdgeStyle={&quot;edgeStyle&quot;:&quot;elbowEdgeStyle&quot;,&quot;startArrow&quot;:&quot;none&quot;,&quot;endArrow&quot;:&quot;none&quot;};rounded=1;sketch=1;fillColor=#F5AB50;strokeColor=#909090;fontColor=#1A1A1A;fontFamily=Comic Sans MS;fontSize=14;fontStyle=1" vertex="1" parent="2">
                    <mxGeometry x="270" y="220" width="120" height="40" as="geometry"/>
                </mxCell>
                <mxCell id="29" value="" style="edgeStyle=elbowEdgeStyle;elbow=vertical;startArrow=none;endArrow=none;sketch=1;labelBackgroundColor=#EEEEEE;strokeColor=#182E3E;fontColor=#1A1A1A;fontFamily=Comic Sans MS;fontSize=14;fontStyle=1" edge="1" target="30" source="11" parent="2">
                    <mxGeometry relative="1" as="geometry">
                        <mxPoint x="236" y="146" as="sourcePoint"/>
                    </mxGeometry>
                </mxCell>
                <mxCell id="30" value="Container" style="whiteSpace=wrap;html=1;treeFolding=1;treeMoving=1;newEdgeStyle={&quot;edgeStyle&quot;:&quot;elbowEdgeStyle&quot;,&quot;startArrow&quot;:&quot;none&quot;,&quot;endArrow&quot;:&quot;none&quot;};rounded=1;sketch=1;fillColor=#F5AB50;strokeColor=#909090;fontColor=#1A1A1A;fontFamily=Comic Sans MS;fontSize=14;fontStyle=1" vertex="1" parent="2">
                    <mxGeometry x="400" y="220" width="120" height="40" as="geometry"/>
                </mxCell>
                <mxCell id="31" value="" style="edgeStyle=elbowEdgeStyle;elbow=vertical;startArrow=none;endArrow=none;sketch=1;labelBackgroundColor=#EEEEEE;strokeColor=#182E3E;fontColor=#1A1A1A;fontFamily=Comic Sans MS;fontSize=14;fontStyle=1" edge="1" target="32" source="13" parent="2">
                    <mxGeometry relative="1" as="geometry">
                        <mxPoint x="236" y="146" as="sourcePoint"/>
                    </mxGeometry>
                </mxCell>
                <mxCell id="32" value="Container" style="whiteSpace=wrap;html=1;treeFolding=1;treeMoving=1;newEdgeStyle={&quot;edgeStyle&quot;:&quot;elbowEdgeStyle&quot;,&quot;startArrow&quot;:&quot;none&quot;,&quot;endArrow&quot;:&quot;none&quot;};rounded=1;sketch=1;fillColor=#F5AB50;strokeColor=#909090;fontColor=#1A1A1A;fontFamily=Comic Sans MS;fontSize=14;fontStyle=1" vertex="1" parent="2">
                    <mxGeometry x="530" y="220" width="120" height="40" as="geometry"/>
                </mxCell>
                <mxCell id="33" value="" style="edgeStyle=elbowEdgeStyle;elbow=vertical;startArrow=none;endArrow=none;sketch=1;labelBackgroundColor=#EEEEEE;strokeColor=#182E3E;fontColor=#1A1A1A;fontFamily=Comic Sans MS;fontSize=14;fontStyle=1" edge="1" target="34" source="16" parent="2">
                    <mxGeometry relative="1" as="geometry">
                        <mxPoint x="236" y="146" as="sourcePoint"/>
                    </mxGeometry>
                </mxCell>
                <mxCell id="34" value="Container" style="whiteSpace=wrap;html=1;treeFolding=1;treeMoving=1;newEdgeStyle={&quot;edgeStyle&quot;:&quot;elbowEdgeStyle&quot;,&quot;startArrow&quot;:&quot;none&quot;,&quot;endArrow&quot;:&quot;none&quot;};rounded=1;sketch=1;fillColor=#F5AB50;strokeColor=#909090;fontColor=#1A1A1A;fontFamily=Comic Sans MS;fontSize=14;fontStyle=1" vertex="1" parent="2">
                    <mxGeometry x="660" y="220" width="120" height="40" as="geometry"/>
                </mxCell>
                <mxCell id="94" value="" style="edgeStyle=orthogonalEdgeStyle;curved=0;rounded=1;sketch=1;orthogonalLoop=1;jettySize=auto;html=1;fontFamily=Comic Sans MS;fontSize=14;fontColor=#1A1A1A;strokeColor=#182E3E;" edge="1" parent="1" source="35" target="76">
                    <mxGeometry relative="1" as="geometry"/>
                </mxCell>
                <mxCell id="35" value="Header" style="swimlane;startSize=41;horizontal=1;containerType=tree;rounded=1;sketch=1;fillColor=#F5AB50;strokeColor=#909090;fontColor=#1A1A1A;fontFamily=Comic Sans MS;fontSize=24;spacing=0;" vertex="1" parent="1">
                    <mxGeometry x="36" y="447" width="910" height="321" as="geometry"/>
                </mxCell>
                <mxCell id="37" value="Container" style="whiteSpace=wrap;html=1;treeFolding=1;treeMoving=1;newEdgeStyle={&quot;edgeStyle&quot;:&quot;elbowEdgeStyle&quot;,&quot;startArrow&quot;:&quot;none&quot;,&quot;endArrow&quot;:&quot;none&quot;};rounded=1;sketch=1;fillColor=#F5AB50;strokeColor=#909090;fontColor=#1A1A1A;fontFamily=Comic Sans MS;fontSize=14;fontStyle=1" vertex="1" parent="35">
                    <mxGeometry x="31" y="65" width="120" height="40" as="geometry"/>
                </mxCell>
                <mxCell id="60" value="" style="edgeStyle=elbowEdgeStyle;curved=0;rounded=1;sketch=1;orthogonalLoop=1;jettySize=auto;html=1;elbow=horizontal;startArrow=none;endArrow=none;" edge="1" source="37" target="61" parent="35">
                    <mxGeometry relative="1" as="geometry"/>
                </mxCell>
                <mxCell id="61" value="Left" style="whiteSpace=wrap;html=1;treeFolding=1;treeMoving=1;newEdgeStyle={&quot;edgeStyle&quot;:&quot;elbowEdgeStyle&quot;,&quot;startArrow&quot;:&quot;none&quot;,&quot;endArrow&quot;:&quot;none&quot;};rounded=1;sketch=1;fillColor=#F5AB50;strokeColor=#909090;fontColor=#1A1A1A;fontFamily=Comic Sans MS;fontSize=14;fontStyle=1" vertex="1" parent="35">
                    <mxGeometry x="191" y="65" width="120" height="40" as="geometry"/>
                </mxCell>
                <mxCell id="62" value="" style="edgeStyle=elbowEdgeStyle;curved=0;rounded=1;sketch=1;orthogonalLoop=1;jettySize=auto;html=1;elbow=horizontal;startArrow=none;endArrow=none;" edge="1" target="63" source="61" parent="35">
                    <mxGeometry relative="1" as="geometry">
                        <mxPoint x="187" y="532" as="sourcePoint"/>
                    </mxGeometry>
                </mxCell>
                <mxCell id="63" value="LOGO" style="whiteSpace=wrap;html=1;treeFolding=1;treeMoving=1;newEdgeStyle={&quot;edgeStyle&quot;:&quot;elbowEdgeStyle&quot;,&quot;startArrow&quot;:&quot;none&quot;,&quot;endArrow&quot;:&quot;none&quot;};rounded=1;sketch=1;fillColor=#F5AB50;strokeColor=#909090;fontColor=#1A1A1A;fontFamily=Comic Sans MS;fontSize=14;fontStyle=1" vertex="1" parent="35">
                    <mxGeometry x="351" y="65" width="120" height="40" as="geometry"/>
                </mxCell>
                <mxCell id="64" value="" style="edgeStyle=elbowEdgeStyle;curved=0;rounded=1;sketch=1;orthogonalLoop=1;jettySize=auto;html=1;elbow=horizontal;startArrow=none;endArrow=none;" edge="1" source="37" target="65" parent="35">
                    <mxGeometry relative="1" as="geometry"/>
                </mxCell>
                <mxCell id="65" value="Right" style="whiteSpace=wrap;html=1;treeFolding=1;treeMoving=1;newEdgeStyle={&quot;edgeStyle&quot;:&quot;elbowEdgeStyle&quot;,&quot;startArrow&quot;:&quot;none&quot;,&quot;endArrow&quot;:&quot;none&quot;};rounded=1;sketch=1;fillColor=#F5AB50;strokeColor=#909090;fontColor=#1A1A1A;fontFamily=Comic Sans MS;fontSize=14;fontStyle=1" vertex="1" parent="35">
                    <mxGeometry x="191" y="115" width="120" height="40" as="geometry"/>
                </mxCell>
                <mxCell id="66" value="" style="edgeStyle=elbowEdgeStyle;curved=0;rounded=1;sketch=1;orthogonalLoop=1;jettySize=auto;html=1;elbow=horizontal;startArrow=none;endArrow=none;" edge="1" target="67" source="65" parent="35">
                    <mxGeometry relative="1" as="geometry">
                        <mxPoint x="187" y="532" as="sourcePoint"/>
                    </mxGeometry>
                </mxCell>
                <mxCell id="67" value="Navigation" style="whiteSpace=wrap;html=1;treeFolding=1;treeMoving=1;newEdgeStyle={&quot;edgeStyle&quot;:&quot;elbowEdgeStyle&quot;,&quot;startArrow&quot;:&quot;none&quot;,&quot;endArrow&quot;:&quot;none&quot;};rounded=1;sketch=1;fillColor=#F5AB50;strokeColor=#909090;fontColor=#1A1A1A;fontFamily=Comic Sans MS;fontSize=14;fontStyle=1" vertex="1" parent="35">
                    <mxGeometry x="351" y="115" width="120" height="40" as="geometry"/>
                </mxCell>
                <mxCell id="68" value="" style="edgeStyle=elbowEdgeStyle;curved=0;rounded=1;sketch=1;orthogonalLoop=1;jettySize=auto;html=1;elbow=horizontal;startArrow=none;endArrow=none;" edge="1" target="69" source="67" parent="35">
                    <mxGeometry relative="1" as="geometry">
                        <mxPoint x="347" y="582" as="sourcePoint"/>
                    </mxGeometry>
                </mxCell>
                <mxCell id="69" value="Cafe Grazie" style="whiteSpace=wrap;html=1;treeFolding=1;treeMoving=1;newEdgeStyle={&quot;edgeStyle&quot;:&quot;elbowEdgeStyle&quot;,&quot;startArrow&quot;:&quot;none&quot;,&quot;endArrow&quot;:&quot;none&quot;};rounded=1;sketch=1;fillColor=#F5AB50;strokeColor=#909090;fontColor=#1A1A1A;fontFamily=Comic Sans MS;fontSize=14;fontStyle=1" vertex="1" parent="35">
                    <mxGeometry x="511" y="115" width="120" height="40" as="geometry"/>
                </mxCell>
                <mxCell id="70" value="" style="edgeStyle=elbowEdgeStyle;curved=0;rounded=1;sketch=1;orthogonalLoop=1;jettySize=auto;html=1;elbow=horizontal;startArrow=none;endArrow=none;" edge="1" target="71" source="67" parent="35">
                    <mxGeometry relative="1" as="geometry">
                        <mxPoint x="347" y="582" as="sourcePoint"/>
                    </mxGeometry>
                </mxCell>
                <mxCell id="71" value="Story" style="whiteSpace=wrap;html=1;treeFolding=1;treeMoving=1;newEdgeStyle={&quot;edgeStyle&quot;:&quot;elbowEdgeStyle&quot;,&quot;startArrow&quot;:&quot;none&quot;,&quot;endArrow&quot;:&quot;none&quot;};rounded=1;sketch=1;fillColor=#F5AB50;strokeColor=#909090;fontColor=#1A1A1A;fontFamily=Comic Sans MS;fontSize=14;fontStyle=1" vertex="1" parent="35">
                    <mxGeometry x="511" y="165" width="120" height="40" as="geometry"/>
                </mxCell>
                <mxCell id="72" value="" style="edgeStyle=elbowEdgeStyle;curved=0;rounded=1;sketch=1;orthogonalLoop=1;jettySize=auto;html=1;elbow=horizontal;startArrow=none;endArrow=none;" edge="1" target="73" source="67" parent="35">
                    <mxGeometry relative="1" as="geometry">
                        <mxPoint x="347" y="582" as="sourcePoint"/>
                    </mxGeometry>
                </mxCell>
                <mxCell id="73" value="Menu" style="whiteSpace=wrap;html=1;treeFolding=1;treeMoving=1;newEdgeStyle={&quot;edgeStyle&quot;:&quot;elbowEdgeStyle&quot;,&quot;startArrow&quot;:&quot;none&quot;,&quot;endArrow&quot;:&quot;none&quot;};rounded=1;sketch=1;fillColor=#F5AB50;strokeColor=#909090;fontColor=#1A1A1A;fontFamily=Comic Sans MS;fontSize=14;fontStyle=1" vertex="1" parent="35">
                    <mxGeometry x="511" y="215" width="120" height="40" as="geometry"/>
                </mxCell>
                <mxCell id="74" value="" style="edgeStyle=elbowEdgeStyle;curved=0;rounded=1;sketch=1;orthogonalLoop=1;jettySize=auto;html=1;elbow=horizontal;startArrow=none;endArrow=none;" edge="1" target="75" source="67" parent="35">
                    <mxGeometry relative="1" as="geometry">
                        <mxPoint x="347" y="582" as="sourcePoint"/>
                    </mxGeometry>
                </mxCell>
                <mxCell id="75" value="Shop" style="whiteSpace=wrap;html=1;treeFolding=1;treeMoving=1;newEdgeStyle={&quot;edgeStyle&quot;:&quot;elbowEdgeStyle&quot;,&quot;startArrow&quot;:&quot;none&quot;,&quot;endArrow&quot;:&quot;none&quot;};rounded=1;sketch=1;fillColor=#F5AB50;strokeColor=#909090;fontColor=#1A1A1A;fontFamily=Comic Sans MS;fontSize=14;fontStyle=1" vertex="1" parent="35">
                    <mxGeometry x="511" y="265" width="120" height="40" as="geometry"/>
                </mxCell>
                <mxCell id="76" value="Section-1" style="swimlane;startSize=41;horizontal=1;containerType=tree;rounded=1;sketch=1;fillColor=#F5AB50;strokeColor=#909090;fontColor=#1A1A1A;fontFamily=Comic Sans MS;fontSize=24;spacing=0;" vertex="1" parent="1">
                    <mxGeometry x="36" y="848" width="910" height="321" as="geometry"/>
                </mxCell>
                <mxCell id="77" value="Container" style="whiteSpace=wrap;html=1;treeFolding=1;treeMoving=1;newEdgeStyle={&quot;edgeStyle&quot;:&quot;elbowEdgeStyle&quot;,&quot;startArrow&quot;:&quot;none&quot;,&quot;endArrow&quot;:&quot;none&quot;};rounded=1;sketch=1;fillColor=#F5AB50;strokeColor=#909090;fontColor=#1A1A1A;fontFamily=Comic Sans MS;fontSize=14;fontStyle=1" vertex="1" parent="76">
                    <mxGeometry x="31" y="65" width="120" height="40" as="geometry"/>
                </mxCell>
                <mxCell id="78" value="" style="edgeStyle=elbowEdgeStyle;curved=0;rounded=1;sketch=1;orthogonalLoop=1;jettySize=auto;html=1;elbow=horizontal;startArrow=none;endArrow=none;" edge="1" parent="76" source="77" target="79">
                    <mxGeometry relative="1" as="geometry"/>
                </mxCell>
                <mxCell id="79" value="fullpage" style="whiteSpace=wrap;html=1;treeFolding=1;treeMoving=1;newEdgeStyle={&quot;edgeStyle&quot;:&quot;elbowEdgeStyle&quot;,&quot;startArrow&quot;:&quot;none&quot;,&quot;endArrow&quot;:&quot;none&quot;};rounded=1;sketch=1;fillColor=#F5AB50;strokeColor=#909090;fontColor=#1A1A1A;fontFamily=Comic Sans MS;fontSize=14;fontStyle=1" vertex="1" parent="76">
                    <mxGeometry x="191" y="65" width="120" height="40" as="geometry"/>
                </mxCell>
                <mxCell id="80" value="" style="edgeStyle=elbowEdgeStyle;curved=0;rounded=1;sketch=1;orthogonalLoop=1;jettySize=auto;html=1;elbow=horizontal;startArrow=none;endArrow=none;" edge="1" parent="76" source="79" target="81">
                    <mxGeometry relative="1" as="geometry">
                        <mxPoint x="187" y="532" as="sourcePoint"/>
                    </mxGeometry>
                </mxCell>
                <mxCell id="81" value="banner" style="whiteSpace=wrap;html=1;treeFolding=1;treeMoving=1;newEdgeStyle={&quot;edgeStyle&quot;:&quot;elbowEdgeStyle&quot;,&quot;startArrow&quot;:&quot;none&quot;,&quot;endArrow&quot;:&quot;none&quot;};rounded=1;sketch=1;fillColor=#F5AB50;strokeColor=#909090;fontColor=#1A1A1A;fontFamily=Comic Sans MS;fontSize=14;fontStyle=1" vertex="1" parent="76">
                    <mxGeometry x="351" y="65" width="120" height="40" as="geometry"/>
                </mxCell>
            </root>
        </mxGraphModel>
    </diagram>
</mxfile>